<svg width="210" height="282" viewBox="0 0 210 282" fill="none" xmlns="http://www.w3.org/2000/svg">
<g clip-path="url(#clip0_358_126)">
<path d="M16 183.838V4H194V184C194.073 193.977 191.599 197.365 181 197.5H163C125.536 199.758 120.929 215.741 109.5 239L103.5 197.5H28.5C18.7011 197.548 16 195 16 183.838Z" stroke="#EC4848" stroke-width="8"/>
<path d="M130 153.5H137.5V144.5H141V147H144V144.5H147.5V153.5H154.5V144.5H158V147H161V144.5H164.5V153.5H171.5V144.5H175.5V147H178V145H181.5V183H130M130 153.5V117H127V125.5M130 153.5V155.5M127 125.5H121.5V123.5M127 125.5H128.1V144.5M118 78.5V72H121.5V123.5M118 78.5H113.5V70H111.5M118 78.5H120V84.5H118V87H115.5V95.5H120V98.5H118V97.5H92.5V98.5H90V95.5H94.5V87H92V84.5H90V78.5H92M111.5 70V78.5H107V72H103V78.5H98V70M111.5 70V68M98 70H96V78.5H92M98 70V68M92 78.5V72H88.5V123.5M83 125.5H88.5V123.5M83 125.5V117H79.5V153.5M83 125.5H81.5V144.5M79.5 153.5H72V144.5H69V147H66V144.5H62.5V153.5H55.5V144.5H51.5V147H48V144.5H45V153.5H38.5V144.5H34.5V147H32V144.5H29.5V145V183H79.5M79.5 153.5V155.5M81.5 144.5V183M81.5 144.5H83.5M128.1 144.5V183M128.1 144.5H126.5M109 125.5V127.5H111V130H113.5V142.5H96.5V130H99V127.5H101V125.5M109 125.5H107V123.5M109 125.5H113.5V121H115.5V125.5H118V123.5H121.5M109 125.5V123.5H107M107 123.5H103M107 123.5V121H103V123.5M103 123.5V125.5H101M103 123.5H101V125.5M101 125.5H96.5V121H94.5V125.5H92V123.5H88.5M81.5 183H83.5M81.5 183H79.5M83.5 144.5V183M83.5 144.5H87.5M83.5 183H87.5M79.5 183V181M87.5 144.5V183M87.5 144.5H90M87.5 183H90M90 144.5H96V151H98.5V144.5H103V151H107V144.5H111.5V151H114V144.5H120M90 144.5V170.5H94.5V162H96V159.5H98V157.5H112V159.5H114V162H115.5V170.5H120V144.5M120 144.5H122M122 144.5V183M122 144.5H126.5M122 183H126.5M122 183H120M130 183H128.1M130 183V181M128.1 183H126.5M126.5 144.5V183M90 183V172.5H94.5V183M90 183H94.5M94.5 183H96.5M96.5 183H114M96.5 183V181M114 183H115.5M114 183V181M115.5 183V172.5H120V183M115.5 183H120M98 68V59.5H100.5V48.5H103V42.5H104V40H105.5V42.5H106.5V48.5H109V59.5H111.5V68M98 68H100.5V61.5H103V50.5H107V61.5H109V68H111.5M79.5 155.5H70V148.5H64.5V155.5H53.5V148.5H47V155.5H36.5V148.5H31.5V181H79.5M79.5 155.5V181M130 155.5H139.5V148.5H145.5V155.5H156.5V148.5H162.5V155.5H173.5V148.5H179.5V181H130M130 155.5V181M96.5 181V164H98V162H100V159.5H110V162H112.5V164H114V181M96.5 181H114M94.5 80.5V85H96.5V95.5H101V85H103V80.5H94.5ZM107 80.5V85H109V95.5H113.5V85H116V80.5H107ZM107 70H103V67.5H107V70ZM90 102H92.5V104H98.5V102H102.5V99.5H107.5V102H111.5V104H118V102H120V106H113.5V108.5H120V112.5H118V110.5H113.5V114.5H112V117H109.5V119H100.5V117H98V114.5H96.5V110.5H92V112.5H90V108.5H96.5V106H90V102ZM98.5 106V113.5H101.5V117H108.5V113.5H111.5V106H108.5V104H101.5V106H98.5ZM103 108V112.5H107.5V108H103ZM126 127.5V142.5H116V127.5H126ZM119.5 130V136.5H122.5V130H119.5ZM83.5 127.5V142.5H94.5V127.5H83.5ZM87.5 130V136.5H90.5V130H87.5ZM102.5 129.5V134.5H107.5V129.5H102.5ZM98.5 166V168H100.5V166H98.5ZM98.5 170.5V172.5H100.5V170.5H98.5ZM98.5 174.5V176.5H100.5V174.5H98.5ZM109.5 166V168H111.5V166H109.5ZM109.5 170.5V172.5H111.5V170.5H109.5ZM109.5 174.5V176.5H111.5V174.5H109.5ZM103 174.5V176.5H107V174.5H103ZM103 172.5H107V170.5H103V172.5ZM103 168H107V166H103V168ZM46.5 161.5V164.5H49.5V161.5H46.5ZM66.5 161.5V164.5H69.5V161.5H66.5ZM141 161.5V164H143.5V161.5H141ZM160.5 161.5V164H163V161.5H160.5Z" stroke="#494949"/>
<path d="M105 24.5L106.684 29.6824H112.133L107.725 32.8853L109.408 38.0676L105 34.8647L100.592 38.0676L102.275 32.8853L97.8672 29.6824H103.316L105 24.5Z" fill="#EC4848"/>
<path d="M0 268.214H2.97478L7.48552 276.971L11.9574 268.214H14.9321V281.806H12.5407V272.058L8.30213 280.408H6.63003L2.37203 272.058V281.806H0V268.214ZM24.4676 268.039C25.8156 268.039 27.0405 268.343 28.1423 268.951C29.257 269.56 30.1319 270.395 30.7671 271.456C31.4022 272.518 31.7198 273.696 31.7198 274.99C31.7198 276.285 31.4022 277.469 30.7671 278.544C30.1319 279.605 29.257 280.447 28.1423 281.068C27.0405 281.689 25.8156 282 24.4676 282C23.1195 282 21.8882 281.689 20.7734 281.068C19.6717 280.447 18.8032 279.605 18.1681 278.544C17.533 277.469 17.2154 276.285 17.2154 274.99C17.2154 273.696 17.533 272.518 18.1681 271.456C18.8032 270.395 19.6717 269.56 20.7734 268.951C21.8882 268.343 23.1195 268.039 24.4676 268.039ZM24.5065 270.369C23.6769 270.369 22.9057 270.576 22.1928 270.99C21.4799 271.392 20.916 271.948 20.5012 272.66C20.0865 273.359 19.8791 274.136 19.8791 274.99C19.8791 275.845 20.0865 276.628 20.5012 277.34C20.929 278.052 21.4928 278.615 22.1928 279.029C22.9057 279.443 23.6769 279.65 24.5065 279.65C25.3231 279.65 26.0814 279.443 26.7813 279.029C27.4812 278.615 28.0321 278.052 28.4339 277.34C28.8487 276.628 29.0561 275.845 29.0561 274.99C29.0561 274.136 28.8487 273.359 28.4339 272.66C28.0321 271.948 27.4812 271.392 26.7813 270.99C26.0814 270.576 25.3231 270.369 24.5065 270.369ZM42.5611 271.709C41.8612 271.282 41.1418 270.951 40.403 270.718C39.6771 270.485 39.0355 270.369 38.4781 270.369C37.8559 270.369 37.3634 270.485 37.0005 270.718C36.6375 270.951 36.4561 271.275 36.4561 271.689C36.4561 272.065 36.5792 272.382 36.8255 272.641C37.0847 272.887 37.4023 273.094 37.7782 273.262C38.167 273.417 38.692 273.592 39.3531 273.786C40.2733 274.058 41.0251 274.33 41.6084 274.602C42.2047 274.874 42.7102 275.275 43.125 275.806C43.5398 276.337 43.7471 277.036 43.7471 277.903C43.7471 278.731 43.5203 279.456 43.0666 280.078C42.6259 280.686 42.0102 281.152 41.2196 281.476C40.4419 281.799 39.5475 281.961 38.5365 281.961C37.4736 281.961 36.4366 281.767 35.4256 281.379C34.4146 280.977 33.5332 280.447 32.7814 279.786L33.8702 277.573C34.5571 278.207 35.3284 278.706 36.1839 279.068C37.0394 279.43 37.8365 279.612 38.5753 279.612C39.3012 279.612 39.8715 279.476 40.2863 279.204C40.7011 278.919 40.9085 278.537 40.9085 278.058C40.9085 277.67 40.7789 277.353 40.5196 277.107C40.2734 276.848 39.9558 276.641 39.5669 276.485C39.1781 276.33 38.6466 276.155 37.9726 275.961C37.0523 275.689 36.3005 275.424 35.7172 275.165C35.134 274.906 34.6349 274.518 34.2201 274C33.8054 273.469 33.598 272.777 33.598 271.922C33.598 271.133 33.8054 270.447 34.2201 269.864C34.6479 269.269 35.2441 268.809 36.0089 268.485C36.7866 268.162 37.681 268 38.692 268C39.5734 268 40.4418 268.129 41.2973 268.388C42.1658 268.647 42.937 268.997 43.611 269.437L42.5611 271.709ZM45.6901 275.01H50.5703V276.757H45.6901V275.01ZM58.991 268.214C60.702 268.214 62.0241 268.621 62.9574 269.437C63.9036 270.252 64.3767 271.405 64.3767 272.893C64.3767 274.447 63.9036 275.657 62.9574 276.524C62.0241 277.379 60.702 277.806 58.991 277.806H56.0162V281.806H53.4109V268.214H58.991ZM58.8549 275.515C59.84 275.515 60.5918 275.301 61.1103 274.874C61.6417 274.447 61.9074 273.812 61.9074 272.971C61.9074 272.142 61.6417 271.521 61.1103 271.107C60.5918 270.693 59.84 270.485 58.8549 270.485H56.0162V275.515H58.8549ZM75.047 281.806L72.6944 277.786C72.5907 277.799 72.4286 277.806 72.2083 277.806H69.1363V281.806H66.531V268.214H72.2083C73.9711 268.214 75.3321 268.621 76.2913 269.437C77.2505 270.252 77.7301 271.405 77.7301 272.893C77.7301 273.955 77.4967 274.861 77.0301 275.612C76.5765 276.362 75.9089 276.926 75.0275 277.301L78.0217 281.806H75.047ZM69.1363 275.515H72.2083C73.1934 275.515 73.9452 275.301 74.4637 274.874C74.9821 274.447 75.2414 273.812 75.2414 272.971C75.2414 272.142 74.9821 271.521 74.4637 271.107C73.9452 270.693 73.1934 270.485 72.2083 270.485H69.1363V275.515ZM86.7645 268.039C88.1126 268.039 89.3375 268.343 90.4392 268.951C91.554 269.56 92.4289 270.395 93.064 271.456C93.6992 272.518 94.0167 273.696 94.0167 274.99C94.0167 276.285 93.6992 277.469 93.064 278.544C92.4289 279.605 91.554 280.447 90.4392 281.068C89.3375 281.689 88.1126 282 86.7645 282C85.4165 282 84.1851 281.689 83.0704 281.068C81.9686 280.447 81.1002 279.605 80.465 278.544C79.8299 277.469 79.5123 276.285 79.5123 274.99C79.5123 273.696 79.8299 272.518 80.465 271.456C81.1002 270.395 81.9686 269.56 83.0704 268.951C84.1851 268.343 85.4165 268.039 86.7645 268.039ZM86.8034 270.369C85.9738 270.369 85.2026 270.576 84.4897 270.99C83.7768 271.392 83.213 271.948 82.7982 272.66C82.3834 273.359 82.176 274.136 82.176 274.99C82.176 275.845 82.3834 276.628 82.7982 277.34C83.2259 278.052 83.7898 278.615 84.4897 279.029C85.2026 279.443 85.9738 279.65 86.8034 279.65C87.62 279.65 88.3783 279.443 89.0782 279.029C89.7782 278.615 90.329 278.052 90.7309 277.34C91.1456 276.628 91.3531 275.845 91.3531 274.99C91.3531 274.136 91.1456 273.359 90.7309 272.66C90.329 271.948 89.7782 271.392 89.0782 270.99C88.3783 270.576 87.62 270.369 86.8034 270.369ZM101.883 268.214C103.594 268.214 104.916 268.621 105.85 269.437C106.796 270.252 107.269 271.405 107.269 272.893C107.269 274.447 106.796 275.657 105.85 276.524C104.916 277.379 103.594 277.806 101.883 277.806H98.9085V281.806H96.3032V268.214H101.883ZM101.747 275.515C102.732 275.515 103.484 275.301 104.003 274.874C104.534 274.447 104.8 273.812 104.8 272.971C104.8 272.142 104.534 271.521 104.003 271.107C103.484 270.693 102.732 270.485 101.747 270.485H98.9085V275.515H101.747ZM111.776 276.214C111.776 277.288 112.08 278.129 112.69 278.738C113.299 279.346 114.115 279.65 115.139 279.65C116.163 279.65 116.967 279.346 117.55 278.738C118.147 278.129 118.445 277.288 118.445 276.214V268.214H121.05V276.214C121.05 277.392 120.81 278.421 120.331 279.301C119.851 280.168 119.164 280.835 118.27 281.301C117.388 281.767 116.345 282 115.139 282C113.921 282 112.858 281.767 111.951 281.301C111.056 280.835 110.369 280.168 109.89 279.301C109.41 278.421 109.17 277.392 109.17 276.214V268.214H111.776V276.214ZM132.674 271.709C131.974 271.282 131.255 270.951 130.516 270.718C129.79 270.485 129.149 270.369 128.591 270.369C127.969 270.369 127.477 270.485 127.114 270.718C126.751 270.951 126.569 271.275 126.569 271.689C126.569 272.065 126.692 272.382 126.939 272.641C127.198 272.887 127.515 273.094 127.891 273.262C128.28 273.417 128.805 273.592 129.466 273.786C130.387 274.058 131.138 274.33 131.722 274.602C132.318 274.874 132.823 275.275 133.238 275.806C133.653 276.337 133.86 277.036 133.86 277.903C133.86 278.731 133.634 279.456 133.18 280.078C132.739 280.686 132.123 281.152 131.333 281.476C130.555 281.799 129.661 281.961 128.65 281.961C127.587 281.961 126.55 281.767 125.539 281.379C124.528 280.977 123.646 280.447 122.895 279.786L123.983 277.573C124.67 278.207 125.442 278.706 126.297 279.068C127.153 279.43 127.95 279.612 128.689 279.612C129.414 279.612 129.985 279.476 130.4 279.204C130.814 278.919 131.022 278.537 131.022 278.058C131.022 277.67 130.892 277.353 130.633 277.107C130.387 276.848 130.069 276.641 129.68 276.485C129.291 276.33 128.76 276.155 128.086 275.961C127.166 275.689 126.414 275.424 125.83 275.165C125.247 274.906 124.748 274.518 124.333 274C123.919 273.469 123.711 272.777 123.711 271.922C123.711 271.133 123.919 270.447 124.333 269.864C124.761 269.269 125.357 268.809 126.122 268.485C126.9 268.162 127.794 268 128.805 268C129.687 268 130.555 268.129 131.411 268.388C132.279 268.647 133.05 268.997 133.724 269.437L132.674 271.709ZM148.48 281.806H145.35L141.072 275.981L138.934 278.33V281.806H136.328V268.214H138.934V274.99L145.078 268.214H148.15L142.919 273.961L148.48 281.806ZM149.91 275.01H154.791V276.757H149.91V275.01ZM166.77 279.534V281.806H156.699V279.922L161.832 274.641C162.324 274.149 162.719 273.663 163.018 273.184C163.316 272.706 163.465 272.291 163.465 271.942C163.465 271.45 163.27 271.068 162.881 270.796C162.493 270.511 161.955 270.369 161.268 270.369C160.671 270.369 160.036 270.518 159.362 270.816C158.688 271.113 158.053 271.528 157.457 272.058L156.426 270.058C157.23 269.437 158.073 268.958 158.954 268.621C159.848 268.272 160.743 268.097 161.637 268.097C162.531 268.097 163.322 268.239 164.009 268.524C164.696 268.809 165.228 269.217 165.603 269.748C165.992 270.265 166.187 270.867 166.187 271.553C166.187 272.214 165.96 272.913 165.506 273.651C165.053 274.388 164.417 275.184 163.601 276.039L160.14 279.534H166.77ZM178.471 276.369V278.602H176.508V281.806H174.097V278.602H167.583V276.68L172.016 268.214H174.525L170.364 276.369H174.097V273.223H176.508V276.369H178.471ZM180.972 280.194C181.218 280.194 181.425 280.278 181.594 280.447C181.762 280.615 181.847 280.822 181.847 281.068C181.847 281.314 181.762 281.528 181.594 281.709C181.425 281.877 181.218 281.961 180.972 281.961C180.726 281.961 180.518 281.877 180.35 281.709C180.194 281.54 180.116 281.327 180.116 281.068C180.116 280.822 180.194 280.615 180.35 280.447C180.518 280.278 180.726 280.194 180.972 280.194ZM193.966 281.806L191.03 277.379C190.615 277.405 190.298 277.417 190.078 277.417H186.344V281.806H185.003V268.233H190.078C191.776 268.233 193.085 268.628 194.005 269.417C194.938 270.194 195.405 271.301 195.405 272.738C195.405 273.864 195.133 274.803 194.588 275.553C194.044 276.304 193.266 276.829 192.255 277.126L195.522 281.806H193.966ZM190.078 276.214C191.374 276.214 192.372 275.922 193.072 275.34C193.772 274.744 194.122 273.89 194.122 272.777C194.122 271.689 193.772 270.861 193.072 270.291C192.372 269.722 191.374 269.437 190.078 269.437H186.344V276.214H190.078ZM200.084 276.291C200.084 277.689 200.46 278.777 201.212 279.553C201.977 280.33 203.033 280.718 204.381 280.718C205.729 280.718 206.779 280.33 207.531 279.553C208.283 278.777 208.658 277.689 208.658 276.291V268.214H210V276.291C210 278.052 209.501 279.43 208.503 280.427C207.518 281.424 206.144 281.922 204.381 281.922C202.618 281.922 201.238 281.424 200.24 280.427C199.242 279.43 198.743 278.052 198.743 276.291V268.214H200.084V276.291Z" fill="#494949"/>
</g>
<defs>
<clipPath id="clip0_358_126">
<rect width="210" height="282" fill="white"/>
</clipPath>
</defs>
</svg>
