<svg width="28" height="25" viewBox="0 0 28 25" fill="none" xmlns="http://www.w3.org/2000/svg">
<path d="M0.102051 13.4579V19.7752C0.102051 20.1104 0.235131 20.4313 0.47182 20.6689C0.709351 20.9055 1.03027 21.0386 1.36551 21.0386H2.62897C2.62897 22.0435 3.02822 23.0079 3.73913 23.7189C4.45004 24.4298 5.41449 24.829 6.41936 24.829C7.42423 24.829 8.38868 24.4298 9.09959 23.7189C9.81049 23.0079 10.2097 22.0435 10.2097 21.0386H17.7905C17.7905 22.0435 18.1898 23.0079 18.9007 23.7189C19.6116 24.4298 20.576 24.829 21.5809 24.829C22.5858 24.829 23.5502 24.4298 24.2611 23.7189C24.972 23.0079 25.3713 22.0435 25.3713 21.0386H26.6347C26.97 21.0386 27.2909 20.9055 27.5284 20.6689C27.7651 20.4313 27.8982 20.1104 27.8982 19.7752V4.61363C27.8982 3.60875 27.499 2.64431 26.788 1.9334C26.0771 1.22249 25.1127 0.823242 24.1078 0.823242H12.7367C11.7318 0.823242 10.7673 1.22249 10.0564 1.9334C9.34553 2.64431 8.94628 3.60875 8.94628 4.61363V7.14055H6.41936C5.83059 7.14055 5.25024 7.27785 4.72464 7.54065C4.1982 7.80429 3.73997 8.18584 3.38705 8.65669L0.354746 12.6998C0.317684 12.7545 0.288207 12.8143 0.266307 12.8767L0.190489 13.0157C0.134897 13.1563 0.104578 13.3062 0.102051 13.4579ZM20.3174 21.0386C20.3174 20.7885 20.3916 20.5442 20.5305 20.337C20.6695 20.1289 20.8666 19.9672 21.0974 19.8712C21.3282 19.776 21.5826 19.7507 21.8277 19.7996C22.0728 19.8484 22.2977 19.9689 22.4746 20.1449C22.6506 20.3218 22.7711 20.5467 22.8199 20.7918C22.8688 21.0369 22.8435 21.2913 22.7483 21.5221C22.6523 21.7529 22.4906 21.95 22.2825 22.089C22.0753 22.228 21.8311 22.3021 21.5809 22.3021C21.2457 22.3021 20.9247 22.169 20.6872 21.9323C20.4505 21.6948 20.3174 21.3739 20.3174 21.0386ZM11.4732 4.61363C11.4732 4.27839 11.6063 3.95747 11.843 3.71993C12.0805 3.48325 12.4014 3.35017 12.7367 3.35017H24.1078C24.4431 3.35017 24.764 3.48325 25.0015 3.71993C25.2382 3.95747 25.3713 4.27839 25.3713 4.61363V18.5117H24.3858C24.0303 18.1209 23.5974 17.8084 23.1148 17.5944C22.6313 17.3813 22.109 17.271 21.5809 17.271C21.0528 17.271 20.5305 17.3813 20.047 17.5944C19.5644 17.8084 19.1315 18.1209 18.776 18.5117H11.4732V4.61363ZM8.94628 12.1944H3.89244L5.40859 10.1729C5.52651 10.0162 5.67897 9.88899 5.85417 9.80055C6.02937 9.71295 6.2231 9.66747 6.41936 9.66747H8.94628V12.1944ZM5.1559 21.0386C5.1559 20.7885 5.23003 20.5442 5.36901 20.337C5.50799 20.1289 5.70508 19.9672 5.93587 19.8712C6.16666 19.776 6.42104 19.7507 6.66615 19.7996C6.91127 19.8484 7.13617 19.9689 7.31305 20.1449C7.48909 20.3218 7.60953 20.5467 7.65839 20.7918C7.70724 21.0369 7.68198 21.2913 7.5868 21.5221C7.49078 21.7529 7.32904 21.95 7.12099 22.089C6.91379 22.228 6.66952 22.3021 6.41936 22.3021C6.08412 22.3021 5.7632 22.169 5.52567 21.9323C5.28898 21.6948 5.1559 21.3739 5.1559 21.0386ZM2.62897 14.7213H8.94628V18.2338C8.20084 17.5675 7.22208 17.223 6.2231 17.2744C5.22412 17.3266 4.28663 17.7713 3.61447 18.5117H2.62897V14.7213Z" fill="black"/>
</svg>
